<?xml version="1.0" standalone="no"?>
<!DOCTYPE svg PUBLIC "-//W3C//DTD SVG 20010904//EN"
 "http://www.w3.org/TR/2001/REC-SVG-20010904/DTD/svg10.dtd">
<svg version="1.0" xmlns="http://www.w3.org/2000/svg"
 width="512.000000pt" height="512.000000pt" viewBox="0 0 512.000000 512.000000"
 preserveAspectRatio="xMidYMid meet">
<metadata>
Created by potrace 1.11, written by Peter Selinger 2001-2013
</metadata>
<g transform="translate(0.000000,512.000000) scale(0.100000,-0.100000)"
fill="#000000" stroke="none">
<path d="M2383 5110 c-662 -55 -1267 -415 -1645 -980 -79 -119 -192 -343 -236
-471 -190 -546 -158 -1146 89 -1659 109 -226 228 -397 399 -574 240 -247 497
-418 807 -536 l113 -43 0 -126 c0 -148 14 -212 69 -326 74 -151 221 -278 384
-331 70 -24 99 -28 197 -28 98 0 127 4 197 28 163 53 310 180 384 331 55 114
69 178 69 326 l0 126 113 43 c310 118 567 289 807 536 171 177 290 348 399
574 282 586 283 1275 2 1865 -279 584 -806 1021 -1426 1180 -233 60 -497 84
-722 65z m427 -111 c831 -90 1543 -705 1759 -1519 45 -168 61 -285 68 -470 29
-833 -408 -1570 -1153 -1943 -99 -50 -241 -107 -265 -107 -5 0 -9 103 -9 258
l0 257 50 113 c89 199 158 508 148 670 -4 86 -36 140 -100 171 -44 21 -51 21
-748 21 -697 0 -704 0 -748 -21 -26 -13 -54 -38 -70 -62 -26 -39 -27 -47 -26
-156 1 -193 57 -427 150 -632 l44 -96 0 -262 c0 -156 -4 -261 -9 -261 -24 0
-166 57 -265 107 -224 112 -373 219 -547 392 -345 345 -549 775 -600 1268 -14
142 -7 408 16 543 141 844 769 1511 1597 1694 237 52 451 63 708 35z m471
-2678 c25 -25 29 -37 29 -81 0 -113 -37 -311 -87 -465 -40 -123 -37 -121 -81
-87 -138 108 -389 140 -534 67 l-48 -24 -47 24 c-146 73 -397 41 -535 -67
l-37 -29 -15 36 c-53 127 -101 339 -112 498 l-7 96 31 30 30 31 692 0 692 0
29 -29z m-822 -649 c23 -11 38 -27 42 -45 11 -41 28 -57 59 -57 31 0 48 16 59
57 11 44 60 63 161 63 148 0 291 -45 320 -100 6 -12 10 -191 10 -497 0 -533
-2 -552 -67 -675 -93 -178 -272 -282 -483 -282 -211 0 -390 104 -483 282 -65
123 -67 142 -67 675 0 306 4 485 10 497 16 30 92 70 162 85 94 20 235 19 277
-3z"/>
<path d="M1467 3654 c-4 -4 -7 -24 -7 -45 0 -34 -3 -38 -32 -44 -46 -10 -119
-49 -145 -77 -38 -40 -63 -108 -63 -172 0 -103 52 -162 179 -201 l61 -18 0
-99 c0 -54 -4 -98 -8 -98 -5 0 -35 9 -67 20 -32 11 -73 20 -92 20 -71 0 -100
-86 -46 -136 28 -26 108 -54 157 -54 43 0 54 -10 58 -50 2 -25 9 -36 22 -38
24 -5 36 14 36 56 0 24 4 32 18 32 36 0 109 31 146 62 99 81 116 258 33 346
-26 28 -94 64 -154 82 l-43 13 0 79 0 78 28 -6 c15 -4 37 -11 50 -15 78 -29
140 40 101 113 -13 23 -77 53 -135 63 -38 6 -41 9 -50 48 -8 39 -30 58 -47 41z
m-7 -319 c0 -62 -1 -65 -19 -55 -48 25 -56 64 -23 103 30 35 42 21 42 -48z
m104 -286 c33 -26 35 -75 5 -113 -37 -48 -49 -35 -49 54 0 44 4 80 9 80 4 0
20 -9 35 -21z"/>
<path d="M3707 3654 c-4 -4 -7 -24 -7 -45 0 -34 -3 -38 -32 -44 -46 -10 -119
-49 -145 -77 -38 -40 -63 -108 -63 -172 0 -103 52 -162 179 -201 l61 -18 0
-99 c0 -54 -4 -98 -8 -98 -5 0 -35 9 -67 20 -111 38 -165 21 -165 -54 0 -27 7
-43 27 -62 28 -26 108 -54 157 -54 43 0 54 -10 58 -50 2 -27 8 -36 25 -38 19
-3 22 2 25 39 3 42 3 42 58 56 71 17 127 58 165 118 27 44 30 57 30 131 0 75
-3 86 -30 125 -34 49 -71 73 -159 105 l-61 22 -3 67 c-2 38 1 72 6 77 5 5 27
3 53 -6 61 -22 92 -20 117 7 24 25 28 66 11 99 -13 25 -79 54 -141 63 -47 7
-47 7 -50 48 -3 40 -22 59 -41 41z m-7 -319 c0 -62 -1 -65 -19 -55 -48 25 -56
64 -23 103 30 35 42 21 42 -48z m106 -288 c17 -15 27 -33 27 -51 0 -32 -32
-79 -57 -84 -14 -3 -16 8 -16 77 0 45 4 81 9 81 6 0 22 -10 37 -23z"/>
<path d="M2535 1317 c-2 -6 -5 -22 -7 -35 -2 -19 -14 -27 -56 -41 -60 -21
-117 -70 -138 -118 -19 -44 -18 -127 2 -169 19 -40 76 -77 147 -95 l47 -13 0
-83 c0 -81 -1 -83 -24 -83 -14 0 -35 4 -48 9 -59 22 -97 22 -118 1 -29 -29
-27 -83 6 -109 23 -18 90 -37 154 -43 21 -3 26 -9 30 -41 3 -21 8 -38 13 -37
4 0 12 0 17 0 6 0 10 15 10 34 0 31 3 34 43 44 120 31 182 113 175 233 -5 101
-53 153 -175 189 l-43 13 0 69 c0 37 4 68 8 68 5 0 30 -7 56 -16 57 -20 92 -9
102 31 15 62 -17 95 -116 116 -48 10 -50 12 -50 44 0 33 -26 58 -35 32z m-5
-262 c0 -30 -4 -55 -8 -55 -5 0 -18 9 -31 21 -22 21 -22 48 1 77 24 29 38 13
38 -43z m114 -270 c11 -29 7 -52 -15 -79 -37 -47 -49 -35 -49 49 l0 76 29 -15
c16 -9 31 -23 35 -31z"/>
</g>
</svg>
